Coordinates
version=1
nRows=11
nColumns=36
inDegrees=yes

Units are S.I. units (second, meters, Newtons, ...)
If the header above contains a line with 'inDegrees', this indicates whether rotational values are in degrees (yes) or radians (no).

endheader
time	pelvis_tilt	pelvis_list	pelvis_rotation	pelvis_tx	pelvis_ty	pelvis_tz	hip_flexion_r	hip_adduction_r	hip_rotation_r	knee_angle_r	knee_angle_r_beta	ankle_angle_r	subtalar_angle_r	mtp_angle_r	hip_flexion_l	hip_adduction_l	hip_rotation_l	knee_angle_l	knee_angle_l_beta	ankle_angle_l	subtalar_angle_l	mtp_angle_l	lumbar_extension	lumbar_bending	lumbar_rotation	arm_flex_r	arm_add_r	arm_rot_r	elbow_flex_r	pro_sup_r	arm_flex_l	arm_add_l	arm_rot_l	elbow_flex_l	pro_sup_l
      4.95000000	    -27.18884219	      3.86933303	    -23.03374739	      0.98820666	      0.76843820	      0.05342169	     64.52545956	    -10.35162629	    -13.72546160	     63.27069652	      1.10428197	     37.79239744	     11.03890788	     -7.49999987	     72.23788876	    -20.36133614	      2.81695046	     65.23414309	      1.13855058	     39.01022774	     14.11880739	     -7.49999987	    -31.33870996	     10.45860100	     11.98781974	     87.56844570	     -8.20848525	     67.46159094	    108.30405385	     98.32552131	     77.30860577	      1.68158086	     63.75550651	    119.41895364	    107.62439229
      4.96666670	    -27.82311566	      3.92360095	    -22.79387743	      0.99303608	      0.75805115	      0.05579826	     66.07771780	    -10.71001592	    -13.86053015	     64.94116618	      1.13343717	     38.51133270	     11.00228151	     -7.49999987	     74.07566111	    -20.32337220	      3.31626683	     66.78975151	      1.16570107	     39.51291644	     14.05750503	     -7.49999987	    -31.09340317	     10.69695419	     11.89818298	     86.82823763	     -7.70815541	     67.12710993	    108.73425713	     96.78552398	     76.85508710	      1.35408717	     64.13256622	    119.75414073	    106.08515505
      4.98333330	    -28.69341132	      4.23766747	    -22.54074696	      0.99132818	      0.74763512	      0.05011734	     68.09948404	    -11.30705979	    -13.93164448	     66.77641357	      1.16546828	     39.23707556	     11.14384272	     -7.49999987	     76.22529958	    -20.16617328	      3.67666459	     68.44490511	      1.19458895	     40.00319120	     14.12524442	     -7.49999987	    -30.71009970	     10.82157792	     11.74194953	     87.01355209	     -7.81883864	     66.92375143	    109.65476500	     96.98046019	     76.31877793	      1.14986530	     63.71615940	    120.15518004	    106.46542334
      5.00000000	    -29.56505168	      4.53515990	    -22.24627364	      0.98979310	      0.74509252	      0.04932216	     69.83655716	    -11.87752641	    -14.03901054	     68.18445326	      1.19004321	     39.71978073	     11.04629109	     -7.49999987	     78.09113193	    -19.91715080	      3.97964390	     69.75233227	      1.21740786	     40.39640403	     14.07982890	     -7.49999987	    -30.41249716	     11.04162151	     11.41705712	     86.57050580	     -7.80400875	     66.94077788	    107.59378724	     97.59521817	     75.57059980	      0.48165889	     64.04252444	    118.14093559	    108.45311676
      5.01666670	    -30.34843438	      4.75885678	    -22.00169082	      0.98945753	      0.73801432	      0.04920741	     71.40546396	    -12.37111385	    -14.12528292	     69.53139031	      1.21355169	     40.10556350	     11.05381160	     -7.49999987	     79.81582036	    -19.79511307	      4.19051989	     71.01162599	      1.23938668	     40.85344574	     14.14055865	     -7.49999987	    -30.20958186	     11.24191423	     11.43086694	     86.57748903	     -7.60842899	     67.38077324	    107.27310084	     96.20886808	     75.95323838	      0.16378782	     65.31678339	    117.80027279	    107.88824001
      5.03333330	    -30.98093072	      4.87170226	    -21.76875503	      0.98791377	      0.73017649	      0.04827930	     72.73157426	    -12.77793007	    -14.20006863	     70.77966343	      1.23533817	     40.55551033	     10.88185296	     -7.49999987	     81.32803169	    -19.71342842	      4.41012504	     72.21510751	      1.26039140	     41.19893903	     14.15971084	     -7.49999987	    -30.10998970	     11.43705972	     11.42978918	     86.98225630	     -7.21396343	     67.57227185	    108.03591338	     95.84568414	     76.06359693	      0.73446304	     66.23713900	    119.15763534	    107.96315621
      5.05000000	    -31.78339553	      5.15868879	    -21.57817518	      0.98037706	      0.71930929	      0.04559226	     74.60387689	    -13.22730511	    -14.13152201	     72.35527551	      1.26283779	     40.95648862	     10.73978245	     -7.49999987	     83.29101612	    -19.68688391	      4.55515241	     73.66358716	      1.28567213	     41.51600277	     14.16917134	     -7.49999987	    -29.98885140	     11.42025228	     11.58938450	     88.08749043	     -7.39482309	     67.45816118	    107.37251917	     94.75588328	     77.01123936	      0.08521847	     65.26407751	    118.98278057	    106.55776430
      5.06666670	    -32.99890585	      5.54717820	    -21.32136505	      0.97272839	      0.69996426	      0.04912397	     77.44136747	    -13.61970258	    -13.89198390	     74.69444672	      1.30366403	     41.75674666	     10.68407426	     -7.49999987	     86.30140342	    -19.80737800	      4.82359649	     75.74350063	      1.32197347	     41.91434710	     14.12720444	     -7.49999987	    -28.72629078	     11.36352596	     11.96546020	     88.66100959	     -7.11065840	     67.79329611	    106.44211926	     93.92314277	     77.28025895	     -0.24154476	     64.38976558	    119.17009783	    105.46622428
      5.08333330	    -33.61115613	      5.69111700	    -21.23925460	      0.97807991	      0.68808885	      0.04540739	     79.55061690	    -14.09672251	    -13.85696214	     77.03322740	      1.34448345	     42.63713635	     10.78897443	     -7.49999987	     88.60090213	    -19.92336205	      5.24097455	     77.86940771	      1.35907755	     42.47155987	     14.01699767	     -7.49999987	    -27.99407758	     11.45791181	     12.01885118	     88.75488349	     -6.73762741	     68.02113323	    108.70661800	     94.01134354	     77.11321814	      0.72768556	     64.99104568	    121.55990065	    105.54974664
      5.10000000	    -34.11948894	      5.92671287	    -21.10923022	      0.97651522	      0.68627395	      0.04434351	     81.35833971	    -14.53382923	    -13.67690633	     78.91541494	      1.37733382	     43.22011409	     10.53066685	     -7.49999987	     90.46068833	    -19.92214541	      5.46095641	     79.53406830	      1.38813136	     42.82176407	     13.77694162	     -7.49999987	    -28.02824970	     11.31988674	     12.15892207	     88.96548480	     -7.36340712	     68.20490738	    107.58455053	     94.12298735	     76.53668902	      0.34604754	     64.29204926	    119.58724444	    105.63772175
      5.11666670	    -34.97022478	      6.33482130	    -20.91859150	      0.96960525	      0.67441231	      0.04260057	     83.59149075	    -15.07294965	    -13.45141419	     80.72542220	      1.40892441	     43.59415916	     10.44677621	     -7.49999987	     92.73032741	    -19.90295799	      5.54754781	     81.21540184	      1.41747617	     42.86327015	     13.50003670	     -7.49999987	    -27.36197473	     11.19148952	     12.54931780	     89.41295775	     -8.05798142	     68.87510564	    106.12601540	     94.23130950	     76.34024373	      0.77915202	     63.54896780	    117.92299683	    105.71621544
